<!-- icon666.com - MILLIONS vector ICONS FREE --><svg id="Layer_1" enable-background="new 0 0 512 512" viewBox="0 0 512 512" xmlns="http://www.w3.org/2000/svg"><g fill="#334a5c"><path d="m395.51 16h-156.39c-11.29 0-20.47 9.15-20.47 20.4v6.57h197.31v-6.57c0-11.25-9.17-20.4-20.45-20.4z" fill="#334a5c" style="fill: rgb(16, 119, 198);"></path><path d="m272.49 393.36h123.02c11.27 0 20.44-9.15 20.44-20.4v-6.57h-119.3z" fill="#334a5c" style="fill: rgb(16, 119, 198);"></path></g><path d="m218.65 58.97v281.93l68.94-59.6c13.35-11.53 33.6-10.08 45.14 3.22 10.77 12.41 9.75 30.65-2.49 44.36l-19.27 21.51h104.98v-291.42z" fill="#b5cdff"></path><path clip-rule="evenodd" d="m340.75 379.87c0 4.42-3.58 8-8 8h-30.86c-4.42 0-8-3.58-8-8s3.58-8 8-8h30.86c4.42 0 8 3.58 8 8zm91.21-343.47v336.55c0 20.07-16.35 36.4-36.44 36.4h-131.51c-12.82 56.92-41.32 65.48-62.46 71.83-7.33 2.2-13.68 4.11-17.37 7.71l-19.06 20.54c-1.58 1.7-3.72 2.56-5.87 2.56-1.95 0-3.9-.71-5.44-2.14-3.24-3.01-3.43-8.07-.42-11.31l19.18-20.66c.07-.08.14-.15.21-.22 6.52-6.51 15.09-9.08 24.16-11.81 20.43-6.14 43.59-13.09 53.42-69.95.25-1.48.92-2.86 1.92-3.98l66.04-73.73c5.67-6.35 8.59-16 2.33-23.21-5.68-6.54-16.03-7.28-22.6-1.6l-82.17 71.03c-2.37 2.05-5.71 2.53-8.56 1.22-2.85-1.3-4.67-4.14-4.67-7.27v-89.85l-35.16 11.27c-8.39 2.69-14.31 8.85-16.67 17.32l-30.03 108.11c-2.12 7.63-5.98 13.95-11.81 19.31l-15.51 14.31c-1.54 1.42-3.48 2.12-5.42 2.12-2.16 0-4.3-.87-5.88-2.58-3-3.25-2.79-8.31.46-11.3l15.51-14.31c3.67-3.38 5.9-7.02 7.24-11.82l30.03-108.11c3.8-13.63 13.71-23.93 27.2-28.26l40.05-12.84v-215.33c0-20.07 16.36-36.4 36.47-36.4h156.39c20.09 0 36.44 16.33 36.44 36.4zm-213.31 0v6.57h197.31v-6.57c0-11.25-9.17-20.4-20.44-20.4h-156.4c-11.29 0-20.47 9.15-20.47 20.4zm92.33 313.99h104.98v-291.42h-197.31v281.93l68.94-59.6c13.35-11.53 33.6-10.08 45.14 3.22 10.77 12.41 9.75 30.65-2.49 44.36zm104.98 22.57v-6.57h-119.31l-24.16 26.97h123.02c11.28 0 20.45-9.15 20.45-20.4zm-154.02-182.23c4.42 0 8-3.58 8-8v-25.28h25.39c4.42 0 8-3.58 8-8s-3.58-8-8-8h-33.39c-4.42 0-8 3.58-8 8v33.28c0 4.41 3.58 8 8 8zm77.37-33.28h25.36v25.28c0 4.42 3.58 8 8 8s8-3.58 8-8v-33.28c0-4.42-3.58-8-8-8h-33.36c-4.42 0-8 3.58-8 8s3.58 8 8 8zm-43.98 94.46h-25.39v-25.31c0-4.42-3.58-8-8-8s-8 3.58-8 8v33.31c0 4.42 3.58 8 8 8h33.39c4.42 0 8-3.58 8-8s-3.59-8-8-8zm85.34 8v-33.31c0-4.42-3.58-8-8-8s-8 3.58-8 8v25.31h-25.36c-4.42 0-8 3.58-8 8s3.58 8 8 8h33.36c4.42 0 8-3.58 8-8zm-33.86-17.79h-58.99c-4.42 0-8-3.58-8-8v-21.45h-17.88c-4.42 0-8-3.58-8-8s3.58-8 8-8h17.88v-21.42c0-4.42 3.58-8 8-8h58.99c4.42 0 8 3.58 8 8v21.42h17.86c4.42 0 8 3.58 8 8s-3.58 8-8 8h-17.86v21.45c0 4.42-3.58 8-8 8zm-50.99-45.45h42.99v-13.42h-42.99zm42.99 29.45v-13.45h-42.99v13.45zm-21.49-188.64c4.4 0 8.01-3.6 8.01-7.99 0-4.42-3.61-7.99-8.01-7.99-4.43 0-8.01 3.57-8.01 7.99 0 4.39 3.58 7.99 8.01 7.99z" fill-rule="evenodd" fill="#000000"></path><path d="m153.39 498.56 19.18-20.66c.07-.08.14-.15.21-.22 6.52-6.51 15.09-9.08 24.16-11.81 20.43-6.14 43.59-13.09 53.42-69.95.25-1.48.92-2.86 1.92-3.98l66.04-73.73c5.67-6.35 8.59-16 2.33-23.21-5.68-6.54-16.03-7.28-22.6-1.6l-82.17 71.03c-2.37 2.05-5.71 2.53-8.56 1.22-2.85-1.3-4.67-4.14-4.67-7.27v-89.85l-35.16 11.27c-8.39 2.69-14.31 8.85-16.67 17.32l-30.03 108.11c-2.12 7.63-5.98 13.95-11.81 19.31l-15.51 14.31c-1.54 1.42-3.48 2.12-5.42 2.12-2.16 0-4.3-.87-5.88-2.58l71.64 71.47c-3.24-3-3.43-8.06-.42-11.3z" fill="#ffe6cf"></path></svg>